<svg width="69" height="23" viewBox="0 0 69 23" fill="none" xmlns="http://www.w3.org/2000/svg">
<path d="M24.7729 4.60441H27.3912V15.6257H32.9122V18.092H24.7729V4.60441Z" fill="#0347DE"/>
<path d="M39.1439 8.11118C40.51 8.11118 41.5914 8.55434 42.3883 9.44067C43.1978 10.3142 43.6025 11.5666 43.6025 13.1979V13.9686H36.9052C36.9431 14.6238 37.1708 15.1568 37.5882 15.5679C38.0056 15.9661 38.5495 16.1652 39.2198 16.1652C40.2191 16.1652 40.8641 15.7863 41.155 15.0284H43.5456C42.9132 17.2121 41.446 18.3039 39.1439 18.3039C37.7147 18.3039 36.5573 17.8415 35.672 16.9166C34.7992 15.9789 34.3629 14.7458 34.3629 13.2172C34.3629 11.7143 34.8055 10.494 35.6909 9.55628C36.589 8.59288 37.74 8.11118 39.1439 8.11118ZM36.9242 12.2345H41.1171C41.1044 11.6179 40.9147 11.1234 40.5479 10.7509C40.1811 10.3784 39.6941 10.1921 39.087 10.1921C38.4926 10.1921 37.9993 10.3784 37.6072 10.7509C37.2151 11.1234 36.9874 11.6179 36.9242 12.2345Z" fill="#0347DE"/>
<path d="M50.9751 8.32313H54.6179V10.4426H53.1949C53.3214 10.8151 53.3847 11.1941 53.3847 11.5794C53.3847 12.5685 53.0305 13.3842 52.3222 14.0264C51.6265 14.6559 50.7158 14.9706 49.5901 14.9706C48.9704 14.9706 48.4391 14.8871 47.9964 14.7201C47.8447 14.9128 47.7688 15.1504 47.7688 15.433C47.7688 15.9725 48.0913 16.2423 48.7364 16.2423H50.9941C51.9933 16.2423 52.7649 16.4863 53.3088 16.9744C53.8653 17.4497 54.1436 18.1434 54.1436 19.0554C54.1436 20.1216 53.7641 20.9501 53.0052 21.541C52.2463 22.1447 51.2091 22.4466 49.8937 22.4466C48.4644 22.4466 47.3767 22.1832 46.6304 21.6566C45.8968 21.1428 45.53 20.4041 45.53 19.4407C45.53 18.7214 45.8525 18.1498 46.4976 17.7259C45.7513 17.1992 45.3782 16.4992 45.3782 15.6257C45.3782 14.8036 45.7071 14.1164 46.3648 13.564C45.9221 12.9731 45.7008 12.3116 45.7008 11.5794C45.7008 10.5518 46.0676 9.72327 46.8012 9.09385C47.5348 8.43873 48.4644 8.11118 49.5901 8.11118C50.0581 8.11118 50.5198 8.18183 50.9751 8.32313ZM50.368 18.1305H48.9261C48.6225 18.1691 48.3822 18.2847 48.2051 18.4774C48.0281 18.6829 47.9395 18.9398 47.9395 19.2481C47.9395 19.672 48.1103 19.9995 48.4518 20.2307C48.8059 20.462 49.2929 20.5776 49.9127 20.5776C51.1269 20.5776 51.734 20.1216 51.734 19.2095C51.734 18.4902 51.2787 18.1305 50.368 18.1305ZM48.1292 11.5794C48.1292 12.029 48.2621 12.4015 48.5277 12.697C48.7933 12.9796 49.1411 13.1209 49.5712 13.1209C50.0012 13.1209 50.3427 12.9796 50.5957 12.697C50.8613 12.4015 50.9941 12.029 50.9941 11.5794C50.9941 11.1041 50.8613 10.7252 50.5957 10.4426C50.3427 10.1472 50.0012 9.99944 49.5712 9.99944C49.1411 9.99944 48.7933 10.1472 48.5277 10.4426C48.2621 10.7252 48.1292 11.1041 48.1292 11.5794Z" fill="#0347DE"/>
<path d="M59.9191 8.11118C61.108 8.11118 62.0377 8.41947 62.708 9.03604C63.3911 9.63977 63.7326 10.5197 63.7326 11.6758V18.092H61.6266L61.4748 16.8974C60.8677 17.8351 59.9507 18.3039 58.7238 18.3039C57.8511 18.3039 57.1428 18.047 56.5989 17.5332C56.0676 17.0194 55.802 16.3386 55.802 15.4908C55.802 14.6302 56.055 13.9686 56.5609 13.5062C57.0669 13.0438 57.8068 12.7291 58.7807 12.5621L61.2661 12.0997V11.7336C61.2661 10.7445 60.8171 10.2499 59.9191 10.2499C59.5017 10.2499 59.1539 10.372 58.8756 10.616C58.61 10.8472 58.4772 11.1555 58.4772 11.5409H56.0866C56.1499 10.5133 56.5293 9.68473 57.225 9.05531C57.9206 8.42589 58.8187 8.11118 59.9191 8.11118ZM61.2661 14.065V13.776L59.3499 14.1806C58.6289 14.3476 58.2685 14.7137 58.2685 15.2789C58.2685 15.5743 58.3633 15.8119 58.5531 15.9918C58.7554 16.1588 59.0337 16.2423 59.3878 16.2423C60.0582 16.2423 60.5705 15.9468 60.9246 15.3559C61.1523 14.9963 61.2661 14.566 61.2661 14.065Z" fill="#0347DE"/>
<path d="M66.5334 4.02637H68.9998V18.092H66.5334V4.02637Z" fill="#0347DE"/>
<path d="M3.11142 11.6158C3.11142 7.417 6.48308 4.02305 10.6543 4.02305C12.2043 4.02305 13.6507 4.48811 14.8538 5.30243C15.9324 4.23565 16.2888 2.9278 14.8255 1.74334C13.5451 1.19097 12.1289 0.88916 10.6543 0.88916C4.76896 0.88916 0 5.68966 0 11.6139C0 17.5381 4.76896 22.3386 10.6543 22.3386C13.2358 22.3386 15.6062 21.4085 17.456 19.8653C19.3738 18.2651 17.3504 15.8411 15.559 17.3824C14.239 18.5175 12.5249 19.2047 10.6562 19.2047C6.48308 19.2085 3.11142 15.805 3.11142 11.6158Z" fill="#00E2FF"/>
<path d="M17.2532 8.03261C17.9803 7.04829 18.3438 6.00541 18.2014 5.03998C17.9522 3.42842 16.2488 2.54046 14.8978 1.96045C16.1514 2.97311 15.6436 4.46942 14.7928 5.69556L10.7433 11.4957L10.7246 11.5731C11.5285 12.412 12.8215 14.1218 13.9215 12.6349L17.2532 8.03261Z" fill="url(#paint0_linear)"/>
<path d="M10.6051 11.0343C10.2617 10.6949 9.43304 9.86259 8.16394 8.42926C6.77167 6.85941 4.27453 8.83688 5.88516 10.7158L10.8141 16.4396L13.9421 12.352C12.8839 13.7948 11.3684 11.7794 10.6051 11.0343Z" fill="url(#paint1_linear)"/>
<defs>
<linearGradient id="paint0_linear" x1="10.7251" y1="7.59157" x2="18.2322" y2="7.59157" gradientUnits="userSpaceOnUse">
<stop stop-color="#00AAFF"/>
<stop offset="0.9999" stop-color="#00ADFF"/>
</linearGradient>
<linearGradient id="paint1_linear" x1="5.3634" y1="12.1485" x2="13.9429" y2="12.1485" gradientUnits="userSpaceOnUse">
<stop stop-color="#00C0FF"/>
<stop offset="0.1453" stop-color="#039BFF"/>
<stop offset="0.3074" stop-color="#0579FF"/>
<stop offset="0.4731" stop-color="#075EFF"/>
<stop offset="0.6416" stop-color="#084BFF"/>
<stop offset="0.8145" stop-color="#0940FF"/>
<stop offset="0.9987" stop-color="#093CFF"/>
</linearGradient>
</defs>
</svg>
